<svg width="16" height="16" viewBox="0 0 16 16" fill="none" xmlns="http://www.w3.org/2000/svg">
<g clip-path="url(#clip0_27_626)">
<circle cx="8" cy="8" r="8" fill="#3BD4AE"/>
<path d="M11.2801 2.52963C10.9922 2.02578 10.3323 1.84584 9.8285 2.14575L7.88508 3.27341C6.86538 3.86123 6.51749 5.15685 7.10531 6.17654L8.02904 5.6487L10.8962 3.9932C11.4 3.69328 11.58 3.04548 11.2801 2.52963Z" fill="#011E41"/>
<path d="M5.9055 7.74807V6.68039V3.36938C5.9055 2.78155 5.42565 2.3017 4.83782 2.3017C4.25 2.3017 3.77014 2.78155 3.77014 3.36938V5.6247C3.77014 6.78836 4.72985 7.74807 5.9055 7.74807Z" fill="#011E41"/>
<path d="M6.66141 9.5715L5.73769 9.04366L2.87055 7.38816C2.3667 7.10024 1.70689 7.26819 1.41898 7.77204C1.13107 8.27589 1.29902 8.93569 1.80287 9.22361L3.74628 10.3513C4.77798 10.9391 6.07359 10.5912 6.66141 9.5715Z" fill="#011E41"/>
<path d="M8.61677 9.82349L7.69304 10.3513L4.8259 12.0188C4.32205 12.3067 4.1421 12.9665 4.44201 13.4704C4.74192 13.9742 5.38973 14.1542 5.89358 13.8543L7.837 12.7266C8.85669 12.1388 9.20459 10.8432 8.61677 9.82349Z" fill="#011E41"/>
<path d="M9.81635 8.25189V9.31957V12.6306C9.81635 13.2184 10.2962 13.6983 10.884 13.6983C11.4719 13.6983 11.9517 13.2184 11.9517 12.6306V10.3753C11.9517 9.21161 10.992 8.25189 9.81635 8.25189Z" fill="#011E41"/>
<path d="M13.9191 6.77637L11.9757 5.64871C10.956 5.06088 9.6604 5.40878 9.07257 6.42848L9.99629 6.95632L12.8634 8.61182C13.3673 8.89974 14.0271 8.73179 14.315 8.22794C14.6029 7.72409 14.423 7.06428 13.9191 6.77637Z" fill="#011E41"/>
</g>
<defs>
<clipPath id="clip0_27_626">
<rect width="16" height="16" fill="white"/>
</clipPath>
</defs>
</svg>
