<?xml version="1.0" encoding="utf-8"?>
<!-- Generator: Adobe Illustrator 25.1.0, SVG Export Plug-In . SVG Version: 6.00 Build 0)  -->
<svg version="1.1" xmlns="http://www.w3.org/2000/svg" xmlns:xlink="http://www.w3.org/1999/xlink" x="0px" y="0px"
	 viewBox="0 0 429.4 100" style="enable-background:new 0 0 429.4 100;" xml:space="preserve">
<style type="text/css">
	.st0{fill:#011E41;}
	.st1{fill:#FFFFFF;}
</style>
<g id="Icon">
</g>
<g id="Wordmark">
	<g>
		<g>
			<path class="st0" d="M83.4,4.4C81,0.2,75.5-1.3,71.3,1.2l-16.2,9.4c-8.5,4.9-11.4,15.7-6.5,24.2l0,0l7.7-4.4c0,0,0,0,0,0
				l23.9-13.8C84.4,14.1,85.9,8.7,83.4,4.4z"/>
			<path class="st0" d="M38.6,47.9V39V11.4c0-4.9-4-8.9-8.9-8.9h0c-4.9,0-8.9,4-8.9,8.9v18.8C20.8,39.9,28.8,47.9,38.6,47.9z"/>
			<path class="st0" d="M44.9,63.1L44.9,63.1L44.9,63.1l-7.7-4.4L13.3,44.9c-4.2-2.4-9.7-1-12.1,3.2s-1,9.7,3.2,12.1l16.2,9.4
				C29.2,74.5,40,71.6,44.9,63.1z"/>
			<path class="st0" d="M61.2,65.2L61.2,65.2l-7.7,4.4L29.6,83.5c-4.2,2.4-5.7,7.9-3.2,12.1s7.9,5.7,12.1,3.2l16.2-9.4
				C63.2,84.5,66.1,73.7,61.2,65.2z"/>
			<path class="st0" d="M71.2,52.1L71.2,52.1l0,8.9v27.6c0,4.9,4,8.9,8.9,8.9c4.9,0,8.9-4,8.9-8.9V69.8C89,60.1,81,52.1,71.2,52.1z"
				/>
			<path class="st0" d="M105.4,39.8l-16.2-9.4c-8.5-4.9-19.3-2-24.2,6.5l0,0l7.7,4.4l23.9,13.8c4.2,2.4,9.7,1,12.1-3.2l0,0
				C111.1,47.7,109.6,42.2,105.4,39.8z"/>
			<path class="st1" d="M48.6,34.8"/>
		</g>
		<g>
			<path class="st0" d="M143.1,26.7h11.2l0.3,5.3c0.6-0.7,1.3-1.4,2-2.1c0.8-0.8,1.7-1.4,2.8-2c1.1-0.6,2.3-1.1,3.8-1.5
				c1.4-0.4,3.1-0.6,4.9-0.6c6.2,0,10.8,2.3,14,6.8c2.4-2.4,4.8-4.2,7.3-5.2c2.5-1,5.4-1.5,8.7-1.5c5.9,0,10.4,1.7,13.6,5.2
				c3.1,3.5,4.7,8.2,4.7,14.1v28.3h-11.7V45.1c0-3-0.7-5.3-2.2-6.9c-1.5-1.6-3.5-2.4-6.1-2.4c-1.6,0-3,0.3-4.4,0.9
				c-1.3,0.6-2.5,1.5-3.4,2.6c-1,1.1-1.7,2.4-2.2,3.9c-0.5,1.5-0.7,3.1-0.7,4.8v25.2h-11.7V45.1c0-3-0.7-5.3-2.2-6.9
				c-1.5-1.6-3.5-2.4-6.1-2.4c-1.6,0-3,0.3-4.4,0.9c-1.3,0.6-2.5,1.5-3.4,2.6c-1,1.1-1.7,2.4-2.2,3.9c-0.5,1.5-0.7,3.1-0.7,4.8v25.2
				h-11.7V26.7z"/>
			<path class="st0" d="M228.2,26.7h11.7v46.6h-11.7V26.7z M241,13.2c0,3.9-3.1,7-7,7c-3.9,0-7-3.1-7-7s3.1-7,7-7
				C237.9,6.2,241,9.3,241,13.2z"/>
			<path class="st0" d="M251.9,26.7h11.2l0.3,5.3c0.6-0.7,1.3-1.4,2.1-2.1c0.8-0.7,1.8-1.4,3-2c1.2-0.6,2.5-1.1,3.9-1.5
				c1.5-0.4,3.1-0.6,5-0.6c5.8,0,10.3,1.7,13.3,5.2c3,3.5,4.6,8.2,4.6,14.1v28.3h-11.7V45.1c0-3-0.8-5.3-2.4-6.9
				c-1.6-1.6-3.7-2.4-6.3-2.4c-1.6,0-3.1,0.3-4.5,0.9c-1.4,0.6-2.6,1.5-3.6,2.6c-1,1.1-1.8,2.4-2.3,3.9c-0.6,1.5-0.8,3.1-0.8,4.8
				v25.2h-11.7V26.7z"/>
			<path class="st0" d="M314.2,80.8c1.9,1.3,3.9,2.2,6,2.7c2.2,0.6,4.7,0.8,7.6,0.8c3,0,5.6-0.9,7.6-2.8c2.1-1.9,3.1-4.4,3.1-7.7
				v-5.1c-1.6,1.3-3.3,2.4-5.2,3.2c-1.9,0.8-4.4,1.2-7.5,1.2c-3.4,0-6.4-0.6-9-1.7c-2.6-1.1-4.9-2.7-6.7-4.7c-1.9-2-3.3-4.4-4.2-7.2
				c-1-2.7-1.4-5.8-1.4-9.1c0-3.4,0.6-6.7,1.8-9.7c1.2-3,3-5.7,5.3-7.9c2.3-2.3,5-4,8.3-5.3c3.2-1.3,6.9-1.9,10.9-1.9
				c4,0,7.8,0.3,11.2,1c3.4,0.7,6.2,1.4,8.3,2.1v45.3c0,3.2-0.6,6.1-1.7,8.6c-1.1,2.5-2.7,4.6-4.7,6.4c-2,1.7-4.3,3-7.1,3.9
				c-2.7,0.9-5.7,1.3-8.8,1.3c-2.5,0-4.6-0.1-6.5-0.3c-1.9-0.2-3.6-0.5-5.1-0.9c-1.5-0.4-2.8-0.9-4.1-1.5c-1.2-0.6-2.4-1.3-3.4-2.1
				L314.2,80.8z M338.6,36.8c-0.9-0.3-1.9-0.6-2.9-0.7c-1-0.2-2.6-0.2-4.7-0.2c-2.4,0-4.5,0.4-6.3,1.2c-1.8,0.8-3.3,1.9-4.6,3.2
				c-1.3,1.3-2.2,2.9-2.8,4.6c-0.6,1.8-0.9,3.6-0.9,5.5c0,3.6,0.9,6.6,2.7,9c1.8,2.5,4.7,3.7,8.6,3.7c3.6,0,6.3-0.8,8.1-2.3
				c1.8-1.5,2.7-3.9,2.7-7.3V36.8z"/>
			<path class="st0" d="M361.8,7h11.7v66.3h-11.7V7z"/>
			<path class="st0" d="M428.9,66.5c-0.2,0.2-0.7,0.7-1.6,1.6c-0.9,0.9-2.2,1.8-3.9,2.8c-1.7,1-3.8,1.9-6.5,2.7
				c-2.6,0.8-5.7,1.2-9.4,1.2c-3.7,0-7.1-0.6-10.1-1.9c-3-1.3-5.6-3-7.8-5.2c-2.2-2.2-3.8-4.9-5-8c-1.2-3.1-1.7-6.6-1.7-10.3
				c0-3.4,0.6-6.6,1.7-9.6c1.2-2.9,2.8-5.5,4.9-7.7c2.1-2.2,4.6-3.9,7.5-5.2c2.9-1.3,6.1-1.9,9.6-1.9c4.2,0,7.8,0.8,10.8,2.3
				c2.9,1.6,5.3,3.6,7.1,6.1c1.8,2.5,3.1,5.4,3.9,8.5c0.8,3.2,1.2,6.4,1.2,9.7v1.7h-34.8c0,1.7,0.4,3.3,1.1,4.7
				c0.8,1.4,1.8,2.6,3,3.6c1.2,1,2.6,1.8,4.2,2.3c1.6,0.5,3.1,0.8,4.6,0.8c2.3,0,4.2-0.2,5.9-0.6c1.7-0.4,3.1-0.9,4.3-1.5
				c1.2-0.6,2.2-1.2,2.9-1.8c0.8-0.6,1.3-1.1,1.7-1.5L428.9,66.5z M417.4,45.1c0-1.2-0.2-2.4-0.7-3.6c-0.5-1.2-1.1-2.3-2-3.2
				c-0.9-1-2-1.8-3.4-2.4c-1.4-0.6-3-0.9-4.8-0.9c-1.9,0-3.6,0.3-5.1,0.9c-1.5,0.6-2.7,1.4-3.7,2.4c-1,1-1.8,2-2.3,3.2
				c-0.5,1.2-0.8,2.4-0.8,3.6H417.4z"/>
		</g>
	</g>
</g>
</svg>
